<svg width="24px" height="24px" viewBox="-2.4 -2.4 28.80 28.80" fill="none" xmlns="http://www.w3.org/2000/svg" transform="rotate(0)" stroke="#5f6368"><g id="SVGRepo_bgCarrier" stroke-width="0"></g><g id="SVGRepo_tracerCarrier" stroke-linecap="round" stroke-linejoin="round" stroke="#CCCCCC" stroke-width="0.384"></g><g id="SVGRepo_iconCarrier"> <path d="M15 2.19995C19.5645 3.12649 23 7.162 23 11.9999C23 16.8378 19.5645 20.8733 15 21.7999" stroke="#5f6368" stroke-width="2.16" stroke-linecap="round" stroke-linejoin="round"></path> <path d="M15 9C16.1411 9.28364 17 10.519 17 12C17 13.481 16.1411 14.7164 15 15" stroke="#5f6368" stroke-width="2.16" stroke-linecap="round" stroke-linejoin="round"></path> <path d="M1 2L11 2L11 22L1 22" stroke="#5f6368" stroke-width="2.16" stroke-linecap="round" stroke-linejoin="round"></path> <path d="M4 15.5C4 16.3284 3.32843 17 2.5 17C1.67157 17 1 16.3284 1 15.5C1 14.6716 1.67157 14 2.5 14C3.32843 14 4 14.6716 4 15.5Z" fill="#5f6368"></path> <path d="M4 15.5C4 16.3284 3.32843 17 2.5 17C1.67157 17 1 16.3284 1 15.5C1 14.6716 1.67157 14 2.5 14C3.32843 14 4 14.6716 4 15.5ZM4 15.5V7.6C4 7.26863 4.26863 7 4.6 7H7" stroke="#5f6368" stroke-width="2.16" stroke-linecap="round"></path> </g></svg>